<?xml version="1.0" standalone="no"?>
<!DOCTYPE svg PUBLIC "-//W3C//DTD SVG 20010904//EN"
 "http://www.w3.org/TR/2001/REC-SVG-20010904/DTD/svg10.dtd">
<svg version="1.0" xmlns="http://www.w3.org/2000/svg"
 width="814.000000pt" height="814.000000pt" viewBox="0 0 814.000000 814.000000"
 preserveAspectRatio="xMidYMid meet">
<metadata>
Created by potrace 1.14, written by Peter Selinger 2001-2017
</metadata>
<g transform="translate(0.000000,814.000000) scale(0.100000,-0.100000)"
fill="#000000" stroke="none">
<path d="M6499 6865 c-2 -1 -40 -6 -84 -10 -43 -3 -82 -8 -85 -10 -3 -1 -28
-5 -57 -9 -172 -20 -462 -106 -653 -193 -212 -97 -265 -134 -299 -214 -21 -47
-22 -65 -19 -198 3 -133 5 -149 26 -178 26 -36 74 -54 124 -46 18 2 96 39 173
82 117 64 216 113 330 161 65 28 285 94 345 104 19 4 53 9 75 13 52 9 296 9
358 0 69 -10 182 -52 237 -87 50 -32 148 -127 181 -176 79 -116 132 -286 131
-415 -2 -157 -83 -326 -245 -510 -66 -75 -151 -156 -287 -275 -25 -21 -47 -41
-50 -44 -3 -3 -39 -34 -80 -70 -41 -36 -93 -81 -115 -100 -94 -81 -256 -251
-311 -325 -121 -164 -190 -336 -219 -550 -10 -69 -18 -640 -10 -700 10 -80 50
-124 127 -139 78 -16 651 -13 699 3 47 15 85 56 98 106 6 22 11 144 12 270 2
315 11 394 60 537 47 137 167 321 330 503 15 17 38 42 50 56 13 15 62 68 109
119 130 142 135 147 233 264 234 278 344 477 374 675 9 60 9 190 1 270 -38
361 -215 661 -501 848 -112 73 -321 164 -434 188 -13 3 -33 7 -45 10 -119 27
-216 37 -384 40 -106 2 -194 2 -195 0z"/>
<path d="M235 6500 c-66 -7 -113 -36 -139 -85 l-21 -40 -1 -2460 c0 -1428 4
-2475 9 -2497 10 -42 58 -95 96 -106 64 -18 1673 -7 1821 13 14 2 50 6 80 9
515 60 986 222 1344 463 299 202 528 449 708 763 49 86 151 306 163 350 0 3
11 34 23 70 51 154 94 366 119 585 16 145 8 710 -12 785 -2 8 -6 38 -10 65
-25 212 -108 483 -215 701 -228 468 -565 807 -1032 1041 -152 75 -368 159
-488 189 -8 2 -42 11 -75 20 -33 9 -67 17 -75 19 -8 2 -33 8 -55 14 -22 5 -56
13 -75 16 -19 3 -53 10 -75 15 -22 5 -60 11 -85 15 -25 3 -56 8 -70 10 -47 9
-85 14 -155 20 -38 4 -83 9 -100 11 -120 15 -1556 27 -1680 14z m1745 -613
c14 -3 55 -8 92 -11 36 -3 72 -8 80 -11 7 -2 29 -6 48 -9 125 -18 291 -65 440
-125 500 -200 839 -595 971 -1131 38 -152 57 -271 75 -470 5 -55 4 -361 -1
-405 -12 -107 -17 -137 -41 -234 -57 -230 -175 -408 -381 -575 -39 -31 -73
-56 -75 -56 -3 0 -31 -15 -62 -34 -188 -113 -497 -206 -771 -231 -38 -4 -80
-8 -92 -10 -85 -13 -351 -20 -808 -20 -494 0 -532 1 -556 18 -56 38 -54 -45
-54 1654 0 1570 0 1572 21 1600 11 15 36 36 55 46 32 17 66 18 534 14 275 -3
511 -7 525 -10z"/>
<path d="M6072 2277 c-46 -17 -90 -62 -102 -105 -13 -49 -13 -735 0 -784 14
-48 62 -93 113 -107 27 -7 161 -10 372 -8 313 2 332 3 370 23 22 12 49 36 60
55 19 32 20 55 23 419 l3 385 -24 45 c-16 31 -36 50 -68 66 -43 22 -51 23
-379 23 -230 -1 -345 -4 -368 -12z"/>
</g>
</svg>
